ply
format ascii 1.0
comment VCGLIB generated
element vertex 690
property float x
property float y
property float z
element face 1376
property list uchar int vertex_indices
end_header
0.851757 -1.05929 0.478691 
-0.504088 0.603175 0.166047 
0.857639 -0.690206 -0.191294 
-0.656189 -1.10449 0.756581 
1.08161 -1.0292 0.25613 
-1.1471 0.395218 0.695762 
1.15511 -0.614138 0.374456 
0.239291 -0.143375 0.803217 
-1.05316 -0.536518 0.204777 
-1.07388 0.400683 0.800447 
0.576192 -0.897778 0.764053 
-0.445758 0.714875 0.150054 
0.470837 -0.416147 -0.470632 
0.494486 -1.17865 0.217632 
-0.522674 -0.274538 0.727996 
-0.766337 0.599851 -0.285874 
-0.906746 0.634335 0.670381 
0.982837 -0.336781 0.382308 
-0.577832 -0.645456 -0.19572 
1.02924 -0.743269 0.502047 
-0.44547 -1.1875 0.307351 
-0.816041 0.108483 0.824076 
-1.04152 -0.502722 0.0129011 
-0.43782 -1.20417 -0.0234805 
0.288424 -0.399923 -0.54563 
0.1149 -0.527037 -0.586069 
-0.203399 -1.12991 0.0223136 
0.219448 -1.11737 -0.0813592 
0.336631 -1.19528 0.30705 
-0.802233 -1.10783 -0.065994 
0.597654 -1.18407 0.408153 
-0.0287978 -0.211492 -0.463284 
0.225358 0.344315 0.36649 
0.679382 -1.02232 -0.166219 
0.277866 -0.954832 -0.457383 
-0.28563 -1.1988 0.18376 
0.587311 -1.02368 0.70106 
-1.11839 -0.409579 0.232446 
-1.13437 -0.321214 0.395295 
-0.522706 0.0528892 -0.25639 
-0.787246 -1.19592 0.229218 
0.684359 -0.519136 0.769001 
-0.26194 -1.18742 0.70592 
0.69238 -0.877549 -0.312042 
-0.550247 -0.871096 0.513113 
-0.227803 -0.425322 -0.486355 
-1.15771 -0.321248 0.206047 
-0.210607 -1.17647 -0.291843 
-1.05267 0.226299 0.818296 
-0.96234 -0.648002 0.216388 
-0.865577 -0.660734 -0.0242848 
0.947408 -0.243248 0.439328 
1.05691 -1.00616 0.0459245 
-0.238153 -1.14303 0.517773 
-1.04273 -0.358914 0.5333 
-0.555239 -1.15284 -0.170334 
-0.731768 0.821743 -0.330574 
0.53309 0.169563 0.574207 
-0.0546264 -1.18612 0.74914 
-1.15014 0.416859 0.0964256 
0.32192 -1.11346 0.541742 
0.0517292 -1.11574 0.610576 
-0.22649 -0.891788 0.610202 
0.517704 -1.18315 0.651364 
-1.10089 -0.258275 0.469435 
-0.839324 0.0870432 -0.126174 
-0.279471 -0.494304 -0.371488 
-1.20371 0.341163 0.192527 
0.223623 -1.08832 -0.386024 
0.541761 -1.11358 0.719314 
0.33898 -1.13999 -0.365292 
-0.735772 -1.07068 0.678164 
-0.600343 0.832843 0.102617 
-0.249069 -0.872923 -0.179967 
-0.053998 0.23456 -0.0679001 
0.157054 -1.12555 0.0913604 
-0.436487 0.321915 0.078513 
0.0835584 -0.166834 0.820776 
-0.148221 -1.17329 0.686359 
-0.294837 -0.694615 0.676187 
-0.519868 0.582627 0.0316285 
-0.562612 -0.864922 0.34236 
-0.0645178 -1.11411 0.877589 
-0.931733 0.0708873 0.81248 
-0.438564 -1.20481 -0.221787 
-1.2275 0.178235 0.225446 
-0.749473 -1.01158 0.0399157 
-0.802511 0.740293 -0.0173189 
0.746023 -1.15437 0.0438311 
-0.779188 0.753321 0.229684 
-0.0342504 0.827151 -0.182724 
-0.164778 -1.03357 -0.434617 
0.42171 0.329523 0.408946 
-0.340934 -0.995544 -0.303097 
-0.814543 0.211387 0.855207 
-0.716419 0.760511 -0.416695 
-0.105612 -0.894647 0.699632 
0.937054 -0.391282 -0.111885 
-0.901314 0.756415 0.26767 
0.138982 -1.1233 0.476972 
0.827001 0.0644233 0.399296 
-0.753876 0.946205 -0.634321 
0.59377 -0.0879008 -0.291824 
0.955976 -0.198073 0.0197101 
-0.819223 -0.757533 0.313376 
-0.661189 0.354639 -0.0850709 
0.00824636 1.11561 -0.288785 
-1.23636 0.298715 0.352681 
-0.554774 -0.00810075 0.638495 
-0.743397 0.767777 -0.608803 
-0.158592 -0.287169 -0.48717 
-0.844072 0.375725 -0.11482 
-0.694747 -0.0851488 0.684819 
-0.450295 0.215651 -0.162232 
-0.038596 -0.208218 0.816736 
-0.749382 1.08054 -0.858236 
-0.965328 -0.426041 -0.15519 
-0.0512952 0.296923 0.150182 
0.947712 -0.562401 0.480201 
-0.0575814 -1.20273 -0.342092 
-0.0500696 1.07947 -0.345438 
-0.458646 -1.19627 0.117475 
0.406036 0.0227472 -0.293179 
-0.0340724 -1.13049 0.115295 
-0.063905 0.291431 0.26796 
-0.388512 -0.120765 -0.320453 
-0.167465 -1.13423 0.149572 
-0.28076 0.844043 0.00248784 
0.320322 -0.607023 0.919203 
-0.7335 -0.0226288 -0.235829 
0.671012 -1.13923 0.469831 
-0.318766 0.177679 0.498986 
-0.262439 -1.06098 0.797 
-1.08337 0.436987 0.0258801 
0.766475 0.159855 0.188229 
-0.64015 -0.676662 0.591045 
1.00718 -0.42483 0.159569 
-0.169892 -1.1773 0.854894 
-0.992427 0.429217 -0.0557598 
0.026284 0.106523 -0.24222 
0.982891 -0.241052 0.283237 
-0.847335 1.10381 -0.766307 
-0.914793 0.222615 0.874931 
0.748463 0.0105402 0.568999 
-0.735921 0.891963 -0.532856 
0.0804524 0.881207 -0.209744 
-0.929542 0.833347 -0.482704 
-0.632746 0.0757633 -0.231734 
0.470697 -0.112789 -0.32895 
-1.04491 0.699451 0.112898 
-1.02374 -0.532032 0.399768 
-0.241333 0.814851 -0.192008 
-0.763237 -0.67657 -0.10116 
-0.524358 0.149979 0.527789 
-0.644953 -0.892092 0.0831037 
-0.148593 -1.12559 -0.177341 
0.895541 -0.0200108 0.297366 
-0.72343 0.692299 -0.260588 
-0.738937 0.539835 -0.0922294 
0.628293 -1.16981 -0.00323652 
-0.865186 0.810427 -0.690157 
-0.990174 -0.209623 -0.144743 
0.954178 -0.288553 -0.0560794 
-0.355592 0.0802993 -0.244592 
-0.401647 0.893587 -0.152166 
-0.700906 0.0679154 0.603564 
0.889536 -1.11741 0.0631265 
0.696389 -1.18992 0.170182 
0.627359 -1.08769 -0.114872 
0.0500956 -1.19429 -0.362798 
0.65463 -0.785446 0.744928 
-0.805536 0.881475 -0.268076 
0.998774 -0.273938 0.151357 
0.556053 -0.814916 -0.424483 
-1.17305 0.378569 0.546243 
-0.117337 1.16797 -0.150316 
0.838958 0.0686112 0.295185 
-0.470912 -0.956578 0.642332 
-0.218786 -0.766634 0.625124 
0.357085 0.139275 -0.247329 
-0.460502 0.303179 0.377562 
0.133583 0.0651552 -0.286829 
0.57994 -0.491974 0.850629 
-0.910886 0.173147 -0.104335 
0.176888 -1.18887 0.730045 
-0.694766 0.748373 0.35834 
-0.0230792 0.937561 -0.296365 
-0.0784664 1.07407 -0.21043 
1.16462 -0.679382 0.0552243 
-0.357912 -1.19301 0.51467 
0.499998 0.326859 0.317528 
-0.722424 0.630719 -0.0391335 
-0.847734 -1.10985 0.170278 
-0.40276 -0.186482 0.69518 
0.117687 -0.704193 -0.552698 
-0.564907 0.629469 0.297319 
-0.222926 0.0739793 0.577543 
-0.427027 -0.939406 -0.154049 
0.2559 0.100019 -0.268565 
-0.858893 -0.694698 0.395373 
-0.81571 0.579125 0.695455 
0.346572 -1.15071 -0.0328784 
-1.05835 0.570267 0.0555232 
-0.918995 0.744831 -0.359931 
0.467092 -0.603266 0.882876 
0.847116 -0.686998 0.623328 
-0.687745 -1.20788 -0.0632748 
-0.179201 -1.14306 0.425795 
0.666966 -0.623706 0.742844 
0.488946 -0.961676 0.759811 
-0.253498 -0.978126 -0.346286 
-0.495382 -0.155246 -0.327756 
-1.19454 0.602957 0.348019 
0.431458 0.113037 0.628838 
0.699037 0.214179 0.311293 
-1.21333 0.198386 0.525237 
-0.330741 -1.04457 -0.402544 
0.407064 -0.951368 -0.431272 
-0.597128 0.602699 0.443318 
0.216403 0.225739 -0.146718 
-0.124708 1.16092 -0.25978 
0.591996 0.279539 0.100548 
-0.434747 0.165803 0.492274 
-0.67073 -0.591731 0.659252 
-0.923212 -0.57605 -0.0918156 
-0.825891 0.634355 -0.518521 
0.445243 -1.18764 0.380306 
-0.197102 -0.884482 -0.33346 
0.849438 -0.530516 -0.203552 
-0.710024 -0.775993 0.36648 
0.891597 -0.596885 0.568493 
-0.792572 0.929127 -0.412759 
1.12416 -0.922882 0.0285533 
0.330853 0.288691 -0.0718423 
-0.642462 -1.07581 -0.114357 
0.699911 -1.0739 0.553744 
-0.119924 -0.376586 -0.578601 
0.0662924 -0.859353 -0.522668 
-0.683686 -1.01757 -0.04042 
-0.960209 1.09145 -0.764293 
-0.444074 0.731935 -0.102414 
0.745561 0.136273 -0.00399085 
-0.863288 -1.10138 0.0507874 
0.670518 -0.00342876 0.631304 
-0.601014 -0.94479 0.208497 
-0.00578341 -0.529822 0.911627 
0.0323976 -0.430252 -0.605554 
-1.10734 -0.397752 0.0714527 
-0.927359 1.06708 -0.657801 
-0.482014 0.951691 -0.042698 
0.977039 -0.407765 0.000753297 
1.02002 -0.947432 0.498653 
0.0685736 -1.05162 0.827696 
0.750616 -0.752378 0.683624 
-0.140799 0.901223 -0.247834 
-0.846996 -0.567696 0.60732 
-0.866887 -0.0981948 -0.194193 
0.2016 -0.155381 -0.390949 
-0.166749 0.268715 0.143003 
-0.25535 -0.653682 -0.298661 
0.805147 0.111543 0.0998646 
-0.832652 -1.20395 0.0913897 
0.235372 -0.643081 -0.536868 
0.923843 -0.345517 0.519026 
0.093372 0.171395 0.613732 
-0.424714 -1.14707 -0.388079 
-0.654561 0.237595 -0.10258 
0.288805 -1.16835 0.0683676 
0.689946 0.220697 0.13683 
-0.0647192 -0.0718448 -0.345142 
-0.18529 -0.362686 0.76048 
0.43299 -0.19088 0.811212 
0.871649 -0.111685 -0.105954 
0.0694594 0.208523 -0.134237 
-1.21078 0.331803 0.448624 
0.505067 -0.218397 -0.381438 
-0.0499426 -1.12387 -0.200162 
0.512761 -0.771411 0.821054 
-0.305698 -1.12899 -0.116772 
0.317316 -0.809598 0.89214 
-0.644028 0.524503 0.524893 
-1.1138 0.504891 0.119703 
0.39277 -0.0190527 0.679204 
-0.963996 0.795779 -0.198123 
-0.582692 -0.37449 0.747434 
1.01222 -1.06972 0.143136 
0.789942 -0.193081 0.649856 
0.497399 -1.18577 0.497914 
-0.621185 0.495715 -0.0286573 
0.0133528 -1.13131 0.270624 
1.10066 -0.943403 0.421494 
-0.998945 0.569051 -0.0242352 
0.722927 -0.702333 -0.306243 
0.31303 -0.209327 0.874536 
0.56716 -0.375039 -0.420832 
-0.38726 0.233051 0.417231 
-0.664232 -0.980328 0.621455 
-1.03434 0.594483 0.664824 
-0.534018 -1.19228 0.526197 
-0.530568 0.509839 0.26592 
0.642135 -0.728011 -0.378628 
0.788022 -1.07909 -0.0378083 
-1.14134 0.585485 0.529312 
-1.18243 0.484907 0.351587 
-0.737494 0.175659 0.743636 
-0.316799 0.304139 0.146481 
0.622153 0.272609 0.237061 
0.705569 -0.331831 -0.334203 
-0.759322 -0.784967 0.149446 
0.733173 -0.179387 -0.258396 
0.723966 -0.886542 0.647047 
-0.803111 -0.301251 0.721324 
-0.774441 1.01798 -0.945409 
0.902401 -0.778173 0.511892 
-0.338686 -0.39356 0.718753 
-0.744182 -1.14892 0.308103 
0.389104 -0.525119 -0.524382 
-0.533508 -1.18491 0.178508 
-0.86402 0.574411 -0.27054 
0.258957 -1.1679 0.186695 
0.645449 -0.630518 -0.394241 
-0.733355 0.992267 -0.796927 
-0.848712 -0.115425 0.655826 
-0.979775 0.301029 -0.0879929 
0.0158968 -1.12983 0.38546 
-1.00242 -0.260109 0.580138 
-0.61035 0.377563 0.573759 
-1.04478 -0.458846 0.492991 
-0.0665996 0.200643 0.508466 
-0.176366 0.147179 0.518322 
0.167388 0.348329 0.235858 
0.154215 -1.15166 -0.229387 
-0.699024 -1.19099 0.663853 
-0.992241 0.0947793 -0.0462694 
-1.07939 0.0309952 0.561173 
-0.51865 0.391635 0.436947 
-1.05623 -0.133151 -0.0527438 
0.287901 -0.246362 -0.499407 
0.116708 -0.204693 -0.489116 
-0.983115 -0.307024 -0.156726 
-0.394534 0.0358032 0.605352 
-1.06165 0.0418193 0.0413388 
-0.78669 0.811459 -0.882931 
-0.786475 0.717629 -0.717335 
-0.774686 0.767004 -0.138771 
-0.85937 0.939571 -0.339845 
-0.70463 -1.20597 0.119375 
-0.609124 -0.76536 0.452916 
-0.77683 -0.509608 0.672879 
1.23636 -0.773647 0.181238 
0.229344 0.128171 0.659082 
-1.16763 0.419323 0.432094 
0.972056 -1.02467 -0.00188285 
0.446623 -1.0488 -0.370709 
0.883066 -1.11714 0.347786 
-0.735528 0.841099 -0.748748 
-0.882978 0.978977 -0.431653 
1.01694 -0.571658 0.329161 
-0.183503 1.07579 -0.255121 
-0.12357 -1.12632 0.526469 
0.270204 -0.797592 -0.508575 
0.41779 -0.107318 0.763135 
1.22682 -0.657713 0.29565 
0.825652 -0.396704 -0.269008 
-0.691608 -0.774913 0.00255119 
0.666753 -0.394849 0.787326 
-0.211825 -0.496739 0.689458 
-0.414957 -0.478551 -0.293092 
0.60144 -0.60065 0.817462 
0.528754 -1.18932 -0.0583651 
-0.179416 0.00400329 -0.293023 
-0.193033 0.198827 0.434358 
0.942552 -0.127648 0.301838 
-0.0448514 -0.948419 0.788618 
-0.705804 0.321191 0.667477 
0.966505 -0.43362 0.450443 
-1.19944 0.299219 0.598656 
0.49263 -0.323293 0.860455 
0.631767 -1.13081 0.605265 
0.0150672 -0.796524 0.851566 
-0.796252 -0.64532 0.558836 
0.718622 -0.25627 0.729063 
0.884254 -0.132309 0.490701 
-0.455388 -0.374188 -0.325341 
-0.820316 -0.524852 -0.228808 
0.80892 -0.0882207 0.56511 
-1.15174 -0.2246 0.175516 
-0.409205 -0.269431 -0.340236 
-0.170274 -0.473058 0.77506 
-0.095208 -0.554488 0.846735 
-0.378017 1.03148 -0.084905 
0.300227 -1.17207 -0.224832 
-0.791732 0.662507 0.625016 
-0.0154264 -0.145824 0.723098 
0.562946 -1.18413 0.0784504 
0.0794576 1.10363 -0.353942 
-0.0131769 0.935699 -0.190628 
0.0229769 0.295369 0.0455307 
-0.316945 -0.399982 -0.341958 
-0.229516 -0.544509 -0.483988 
-0.258354 1.01179 -0.0216732 
-0.707915 -1.16002 0.412727 
-0.934341 0.0176753 0.71882 
-0.978396 0.508611 0.780076 
-0.887892 -0.219102 0.675956 
0.244095 -0.0129607 0.712802 
-0.310897 0.948311 -0.196299 
0.262828 -1.1264 0.375023 
-0.438527 0.636593 -0.0316199 
-0.659415 0.219963 0.670767 
0.382828 -1.1356 0.465708 
-0.904022 0.676907 -0.569408 
-0.128507 -0.412568 0.872798 
-1.13781 0.582838 0.176688 
0.832042 -0.0247527 -0.0870294 
-0.550101 -1.01262 0.702755 
0.33309 0.127731 0.650103 
0.381213 0.215691 0.581665 
-0.649732 -1.20515 0.215872 
-0.202503 1.1364 -0.0955177 
-0.292192 0.199155 -0.128915 
-0.235747 -0.170298 0.725823 
1.17263 -0.79148 0.425234 
0.942024 -0.88091 -0.0786394 
0.986701 -1.0862 0.243936 
-0.0842799 0.825583 -0.0581481 
0.392306 -0.884795 0.862034 
0.562186 -0.678262 -0.4387 
-0.985853 -0.104381 -0.116459 
0.535612 -1.10514 -0.317501 
-1.15437 0.0679912 0.142069 
-0.107698 -0.712977 -0.520118 
1.18087 -0.590888 0.183372 
0.592816 -0.226018 0.780594 
-1.21689 0.158923 0.665258 
0.428532 0.225491 -0.148582 
0.832218 -0.0199988 0.489271 
-0.0719149 0.0503402 -0.280399 
-0.96259 -0.506645 0.545293 
-0.526209 0.906363 0.0370197 
0.889263 -0.754835 -0.119461 
-1.10659 -0.121905 0.0612291 
-0.577745 -0.176915 0.710039 
-0.419736 -0.70675 -0.205956 
-0.365842 0.283554 -0.0338917 
-0.881246 0.765963 -0.601913 
-0.681234 -0.169959 -0.287361 
-0.392311 0.807627 0.0727762 
-1.0686 0.508003 0.72414 
0.760635 -0.811719 -0.251326 
-0.356094 0.804555 -0.167691 
-1.07369 0.257739 -0.0415339 
-0.0564174 -0.723264 0.802243 
-0.101679 -0.835818 -0.474381 
0.23538 -1.19777 -0.338787 
0.855221 -0.482251 0.622696 
-0.68661 -0.544728 -0.262755 
-0.149944 -1.04035 0.858523 
-1.16654 -0.277294 0.299685 
-0.791867 0.918041 -0.911517 
-0.628159 0.747819 0.212924 
-0.311824 -1.1923 0.608317 
0.35934 -0.701661 0.915536 
-0.370747 -0.819392 0.664556 
-0.23636 0.248135 0.353214 
-0.485735 -1.05166 -0.170512 
-0.942868 -0.432406 0.6163 
-0.36301 0.924923 0.0707557 
-1.10956 0.702659 0.373116 
-0.366714 -1.04387 0.684038 
-0.111954 -0.631453 0.76734 
-0.0766952 -0.812954 0.749095 
-0.31329 -0.95962 0.665078 
-0.861992 1.13624 -0.890344 
-0.584791 -0.789845 -0.111844 
-0.198865 -0.749069 -0.386058 
-0.244434 -0.776513 -0.242208 
-0.570655 0.0794353 0.579418 
-0.783405 -1.14557 0.63611 
-0.966995 -0.606819 0.0510259 
-1.13279 0.328123 0.0415154 
-0.858073 0.666411 -0.674652 
0.405142 -1.09047 0.745864 
-0.870054 0.617827 -0.408979 
0.0456824 0.253619 0.495945 
-1.1063 -0.0170507 0.339266 
0.554982 0.223035 -0.0822966 
0.747502 -0.46427 -0.312249 
-0.589368 -1.204 0.383809 
-0.054682 -0.0340048 0.690901 
-0.707523 0.444283 0.587776 
-0.720736 -0.352571 0.73985 
-0.179775 0.165138 -0.153966 
-0.54255 0.281531 -0.0696999 
0.776115 -0.395334 0.698822 
-0.2426 0.272147 0.0801175 
-0.0594324 0.252783 0.404848 
-0.808014 0.0222051 0.657429 
0.527026 -0.919168 -0.401855 
-0.063076 -0.281474 0.876942 
-0.622053 -0.987448 0.45943 
0.280992 0.361939 0.27156 
1.05901 -0.848079 0.508701 
-1.13911 -0.0842828 0.209794 
0.451993 -1.19176 -0.131496 
0.16573 0.320331 0.00919551 
-0.938356 -0.0865327 0.601264 
0.592579 -0.0888408 0.722743 
0.0695112 -1.06421 -0.402978 
0.605886 0.239827 0.447302 
-0.768573 -0.707317 0.478008 
-0.364399 -0.0584828 0.648354 
-0.986919 -0.000888765 0.614804 
-0.895091 0.744543 0.0893149 
0.168519 -0.294594 -0.553279 
1.12215 -0.825427 -0.0214347 
1.03465 -0.937445 -0.0447676 
0.430862 -1.1932 -0.299534 
0.0990413 -1.12157 -0.101625 
0.636876 -1.01403 -0.270402 
-0.607575 -0.941039 -0.0554919 
0.0973432 -1.17768 0.802608 
0.676176 0.123355 -0.102546 
0.200909 0.293843 0.49148 
0.115753 -0.0977598 0.722336 
-0.54278 0.783419 0.167595 
1.0741 -0.574893 0.178411 
-1.05243 0.650739 0.572645 
-0.982474 -0.617606 0.327172 
-0.251318 0.712123 -0.0705376 
-0.111834 -1.13474 0.262636 
-0.070028 -1.12898 0.0194236 
0.144695 -0.587841 0.933033 
-0.176718 -0.0949007 -0.352974 
0.829546 -0.288764 -0.238459 
0.00638029 1.20788 -0.37311 
-0.288719 1.0871 -0.0799264 
-1.10356 -0.260541 0.0282626 
-0.848124 -0.243382 -0.239643 
-0.116044 -0.185436 -0.374465 
0.173229 -0.251062 0.916253 
0.802717 -1.17062 0.233694 
-0.0239752 -1.12249 0.543535 
-0.332448 -1.1828 -0.460284 
0.0853692 -1.12536 0.0179683 
-0.255913 -1.12715 -0.212204 
-0.0104682 -0.278982 -0.558203 
-0.307818 -1.1905 0.40226 
-0.147088 -1.16297 -0.444105 
0.439988 -1.19511 0.0115503 
-0.870377 1.04095 -0.832018 
-0.736953 0.122187 -0.153363 
0.835466 -0.957258 -0.0839544 
0.994045 -1.02902 0.429836 
0.775639 -0.584764 -0.287652 
0.337681 -1.18866 0.691219 
0.323315 0.283939 0.506479 
-0.0206504 -1.13693 -0.421823 
0.112254 -1.12855 0.223097 
-0.705627 0.712179 0.039594 
-0.366766 -0.546712 0.698854 
0.025585 -0.142789 -0.3628 
-0.541562 -0.674248 0.609788 
-0.171862 0.240715 0.00261332 
0.055626 1.00336 -0.32943 
0.175177 -0.720745 0.920531 
-1.01266 0.705435 0.50032 
-0.207339 -0.983142 0.765074 
0.364808 0.357339 0.325063 
1.16365 -0.952253 0.175839 
-0.213628 -0.646567 -0.43072 
-1.0716 -0.0693327 0.457092 
-0.946102 0.690571 -0.145526 
-0.034772 0.0601633 0.650795 
-0.22689 -0.0300528 0.654357 
0.877135 -0.916523 0.529327 
-0.972918 0.906723 -0.401518 
-0.360068 0.291195 0.296044 
-1.14949 -0.209893 0.378545 
-0.772764 0.468643 0.676129 
0.913115 -0.0429327 0.140226 
-0.599478 0.735776 -0.0200629 
-0.0118413 -1.01588 -0.431441 
0.574096 -1.14778 -0.186281 
1.19191 -0.905346 0.319599 
0.186816 -1.11589 0.581026 
-1.13465 0.212991 0.0212207 
0.521206 0.0480673 0.640757 
0.840746 0.0241712 0.00476059 
-0.923287 -0.322619 0.661253 
-0.494191 -0.561525 -0.247545 
-0.888093 0.967651 -0.739739 
-1.15287 0.0316643 0.252472 
-0.486108 0.411499 0.248261 
-0.481835 -1.18239 0.702906 
0.0258464 -0.766198 -0.55808 
-0.467766 0.861657 0.114211 
-0.0296278 -0.92078 -0.473525 
-0.409102 -0.835697 -0.165813 
-0.260223 -1.15757 0.817837 
-0.559281 -0.397443 -0.326062 
1.02029 -0.749341 -0.0312635 
0.0586392 0.313639 0.364454 
-0.328151 0.685091 0.0424628 
-0.662965 -0.817102 0.26991 
-1.18473 0.176731 0.117371 
0.111358 0.0891693 0.66877 
-0.722575 -1.05058 0.233119 
-0.898978 -0.697328 0.102047 
0.213361 0.215275 0.595832 
-0.538211 0.811729 -0.0578932 
-0.655634 -0.352863 -0.3164 
0.0510704 -0.706621 0.887092 
-0.0392723 -0.534744 -0.602801 
0.31528 -1.11686 -0.122497 
0.186683 -0.895097 -0.494098 
0.37755 -0.192665 -0.404847 
-0.565135 0.206043 -0.150822 
-0.85007 0.720243 0.531745 
-0.802759 0.755493 0.386789 
-0.662127 0.628539 0.556239 
-0.989288 0.975371 -0.575658 
-0.916124 0.531105 -0.102187 
0.238428 -0.0241647 -0.329348 
0.717318 -1.17308 0.335369 
0.426503 -0.81233 -0.460212 
0.728232 -0.0795048 -0.220992 
0.708294 -0.122032 0.67044 
0.871622 -0.226413 -0.144132 
0.889814 -0.0707808 -0.00447756 
-0.50989 -0.276468 -0.328047 
-1.13303 0.0692433 0.431911 
-0.764589 -1.06426 0.540422 
-0.536103 0.474131 0.0672555 
1.00479 -0.455296 0.318646 
-0.173063 0.810619 0.0250172 
0.965377 -0.568458 -0.0199336 
0.519021 -0.524437 -0.454246 
-0.790522 0.552571 -0.183534 
0.427865 0.302435 -0.0220376 
0.360559 0.355447 0.115097 
-0.482749 -0.0744128 0.676972 
-1.04911 -0.40034 -0.0582349 
0.157222 -0.866978 0.8725 
-0.728273 0.729599 0.49205 
0.915434 -0.617831 -0.128068 
1.00276 -0.584402 0.0740304 
-0.900565 0.867091 -0.602694 
-1.16165 0.456515 0.220107 
-0.567881 0.276267 0.578609 
-1.14116 0.500024 0.623644 
-0.272706 -0.119269 -0.334916 
-0.813526 0.238499 -0.122095 
-1.08874 -0.443365 0.360484 
-0.125842 -0.252084 0.780797 
-0.796099 0.389967 0.733766 
-0.494784 -0.564638 0.689367 
0.85033 -0.278082 0.624171 
0.750024 -0.579667 0.694687 
0.219081 -1.0291 0.769605 
-0.915247 0.769147 -0.0300009 
0.101207 -0.427346 0.945409 
-0.902354 0.424959 0.818936 
0.687738 0.187691 0.444104 
0.389342 -0.320098 -0.495622 
0.303629 -0.116613 -0.33792 
-0.911176 -0.691008 0.307243 
-0.451072 -0.343796 0.715987 
0.497602 0.116419 -0.223032 
0.689234 -0.524853 -0.368872 
-0.855081 0.312267 0.839186 
-0.80771 -0.334134 -0.263311 
0.759352 0.0816392 0.502518 
0.301409 -0.505937 0.932944 
-1.1772 0.245339 0.738303 
0.604618 0.0189203 -0.222439 
-0.857144 -0.454224 0.663905 
-0.692739 -0.22937 0.730895 
-0.456934 -0.0412607 -0.299274 
-0.723157 0.745399 0.139371 
-1.11118 0.0522032 0.701045 
-0.501951 -0.803525 0.595498 
-0.57499 -1.00384 0.367471 
-1.04383 0.122039 0.795401 
0.491848 0.333933 0.200454 
0.333436 -0.394782 0.936542 
-0.158159 0.961259 -0.136627 
0.632009 0.222695 -0.00163727 
-0.89519 -0.631969 0.484478 
-1.23515 0.179003 0.393485 
3 340 196 131 
3 305 258 495 
3 523 484 264 
3 629 272 588 
3 558 324 289 
3 58 78 61 
3 114 77 393 
3 108 112 641 
3 438 327 150 
3 147 551 266 
3 226 13 30 
3 227 476 475 
3 106 175 187 
3 121 20 317 
3 373 457 252 
3 247 22 8 
3 166 352 285 
3 225 483 411 
3 347 135 510 
3 331 169 68 
3 650 448 297 
3 599 132 469 
3 519 498 43 
3 267 13 319 
3 27 267 544 
3 418 317 20 
3 418 23 317 
3 511 193 421 
3 270 499 654 
3 374 326 490 
3 28 319 13 
3 38 54 64 
3 210 91 216 
3 88 394 159 
3 384 456 152 
3 104 199 666 
3 656 562 463 
3 413 202 281 
3 189 20 547 
3 179 668 122 
3 472 463 177 
3 173 625 427 
3 582 597 508 
3 599 42 78 
3 553 0 354 
3 165 112 108 
3 642 339 116 
3 585 555 184 
3 10 170 277 
3 524 606 489 
3 356 146 576 
3 151 635 529 
3 425 686 127 
3 227 93 73 
3 610 249 164 
3 86 154 520 
3 663 214 509 
3 291 660 572 
3 520 238 86 
3 520 234 238 
3 674 376 434 
3 574 511 421 
3 12 637 316 
3 659 482 426 
3 205 575 313 
3 246 613 45 
3 375 17 263 
3 230 118 455 
3 348 223 284 
3 491 348 284 
3 52 516 232 
3 424 4 354 
3 648 303 413 
3 621 239 591 
3 36 378 10 
3 339 538 671 
3 341 441 503 
3 26 126 35 
3 389 388 470 
3 92 556 417 
3 325 506 571 
3 569 52 232 
3 332 71 478 
3 35 23 26 
3 571 485 578 
3 598 474 443 
3 321 141 101 
3 687 241 486 
3 113 39 617 
3 461 53 42 
3 35 547 20 
3 548 557 119 
3 306 684 190 
3 401 315 488 
3 145 564 396 
3 672 436 100 
3 2 228 645 
3 378 287 130 
3 29 261 242 
3 49 8 479 
3 264 609 523 
3 683 512 402 
3 91 227 453 
3 324 530 289 
3 329 328 371 
3 393 77 524 
3 538 339 161 
3 492 163 420 
3 308 104 608 
3 593 180 577 
3 99 60 555 
3 224 22 642 
3 126 531 123 
3 207 547 530 
3 500 401 632 
3 215 334 434 
3 46 458 386 
3 55 465 84 
3 109 144 95 
3 564 120 395 
3 53 78 42 
3 53 359 78 
3 408 603 11 
3 577 258 305 
3 184 58 61 
3 449 440 552 
3 204 182 377 
3 481 411 445 
3 348 491 311 
3 121 35 20 
3 278 26 23 
3 132 457 567 
3 353 217 498 
3 425 90 396 
3 442 193 641 
3 482 659 555 
3 337 664 24 
3 254 120 186 
3 571 631 485 
3 167 13 394 
3 530 35 126 
3 72 679 460 
3 319 407 558 
3 436 385 382 
3 398 45 66 
3 28 13 226 
3 585 184 61 
3 277 368 204 
3 223 348 255 
3 182 204 368 
3 358 406 419 
3 465 520 197 
3 81 347 229 
3 68 454 331 
3 670 142 94 
3 154 244 81 
3 167 166 541 
3 99 555 585 
3 175 106 220 
3 183 333 451 
3 251 575 553 
3 387 367 383 
3 648 413 281 
3 151 529 450 
3 502 290 422 
3 549 13 267 
3 369 583 168 
3 15 483 95 
3 299 218 335 
3 331 27 518 
3 401 607 315 
3 365 433 182 
3 601 636 646 
3 463 178 79 
3 127 603 635 
3 189 298 20 
3 488 20 298 
3 300 320 292 
3 167 30 13 
3 531 518 544 
3 302 566 468 
3 331 454 391 
3 608 479 50 
3 166 301 552 
3 96 373 471 
3 378 310 10 
3 602 523 32 
3 583 429 519 
3 462 204 128 
3 394 13 549 
3 23 84 278 
3 291 281 202 
3 50 224 152 
3 650 297 302 
3 275 12 664 
3 459 312 321 
3 536 390 400 
3 689 85 592 
3 190 92 509 
3 596 467 439 
3 515 188 349 
3 563 495 258 
3 233 639 435 
3 660 513 87 
3 608 50 364 
3 388 389 412 
3 470 366 79 
3 80 581 408 
3 274 215 376 
3 154 81 604 
3 81 229 604 
3 625 360 316 
3 127 447 11 
3 21 497 304 
3 162 534 628 
3 446 611 671 
3 248 239 621 
3 521 58 184 
3 513 149 98 
3 75 558 123 
3 75 319 558 
3 266 617 147 
3 44 296 177 
3 268 687 221 
3 117 124 397 
3 162 250 97 
3 195 218 299 
3 174 274 376 
3 640 501 190 
3 249 439 467 
3 363 534 97 
3 575 253 310 
3 606 573 489 
3 175 419 686 
3 426 10 277 
3 392 620 644 
3 621 101 248 
3 366 270 314 
3 95 157 15 
3 418 20 488 
3 299 593 633 
3 629 580 103 
3 282 213 416 
3 188 432 349 
3 574 573 196 
3 60 410 555 
3 457 599 137 
3 18 152 456 
3 285 352 52 
3 514 338 337 
3 104 49 608 
3 180 335 222 
3 653 8 150 
3 176 260 134 
3 134 214 176 
3 669 487 554 
3 375 263 118 
3 547 53 189 
3 230 313 118 
3 99 558 407 
3 607 244 86 
3 683 21 142 
3 107 67 85 
3 351 107 274 
3 354 166 424 
3 78 58 599 
3 206 29 234 
3 313 19 118 
3 616 665 148 
3 582 557 91 
3 310 253 170 
3 112 404 677 
3 124 117 258 
3 80 408 11 
3 624 354 0 
3 675 668 522 
3 679 581 559 
3 24 25 246 
3 290 584 422 
3 564 186 120 
3 642 22 247 
3 165 153 409 
3 362 584 349 
3 423 352 552 
3 22 224 479 
3 318 622 572 
3 469 42 599 
3 148 668 102 
3 504 517 429 
3 334 512 680 
3 531 26 155 
3 313 502 19 
3 25 262 194 
3 32 501 330 
3 609 264 350 
3 287 555 410 
3 337 257 616 
3 146 647 411 
3 504 429 583 
3 563 397 74 
3 594 469 415 
3 415 177 296 
3 623 198 122 
3 252 659 643 
3 557 169 119 
3 464 577 295 
3 395 120 535 
3 59 67 281 
3 540 499 661 
3 634 375 357 
3 35 530 547 
3 620 392 490 
3 622 638 111 
3 622 318 638 
3 43 449 519 
3 546 539 31 
3 555 659 521 
3 177 469 472 
3 292 554 449 
3 339 537 161 
3 58 137 599 
3 67 605 85 
3 529 635 603 
3 518 27 544 
3 267 27 201 
3 59 133 480 
3 59 281 133 
3 88 301 166 
3 598 520 474 
3 677 284 442 
3 357 375 118 
3 499 540 114 
3 190 684 640 
3 538 256 446 
3 525 460 195 
3 84 545 278 
3 219 435 179 
3 86 242 192 
3 127 400 467 
3 8 528 150 
3 109 101 144 
3 387 630 211 
3 621 146 356 
3 105 493 266 
3 304 165 409 
3 591 239 550 
3 609 417 556 
3 474 364 152 
3 307 669 294 
3 256 428 65 
3 353 70 68 
3 282 587 213 
3 273 492 74 
3 61 78 542 
3 307 363 487 
3 212 302 468 
3 259 476 443 
3 181 269 437 
3 92 32 523 
3 396 187 686 
3 344 283 660 
3 68 34 217 
3 500 632 296 
3 391 614 27 
3 530 324 207 
3 667 14 284 
3 638 318 15 
3 268 221 306 
3 223 656 284 
3 206 346 261 
3 161 336 428 
3 562 135 347 
3 191 80 288 
3 467 596 447 
3 504 369 549 
3 9 403 448 
3 151 254 90 
3 298 401 488 
3 203 483 318 
3 99 542 324 
3 258 464 124 
3 631 571 334 
3 623 665 257 
3 118 263 455 
3 639 233 640 
3 543 548 47 
3 661 673 685 
3 331 391 27 
3 84 47 545 
3 159 369 168 
3 303 302 212 
3 45 110 236 
3 102 675 626 
3 147 39 129 
3 385 627 286 
3 43 292 449 
3 90 145 396 
3 626 522 241 
3 380 135 255 
3 542 78 359 
3 553 354 4 
3 457 82 252 
3 543 265 216 
3 29 238 234 
3 212 468 149 
3 411 203 146 
3 569 515 349 
3 610 450 240 
3 398 259 367 
3 664 316 24 
3 406 358 254 
3 358 120 254 
3 167 88 166 
3 378 63 287 
3 290 502 251 
3 540 77 114 
3 265 93 216 
3 260 580 588 
3 514 337 24 
3 445 160 481 
3 67 107 648 
3 84 265 543 
3 186 145 90 
3 481 160 343 
3 590 456 600 
3 544 123 531 
3 213 57 417 
3 94 304 670 
3 309 534 363 
3 518 531 276 
3 328 573 264 
3 607 40 315 
3 578 64 325 
3 486 241 522 
3 588 241 260 
3 482 69 36 
3 500 81 682 
3 33 552 301 
3 156 100 382 
3 453 597 91 
3 64 578 38 
3 190 509 214 
3 266 493 617 
3 676 348 311 
3 519 429 353 
3 285 424 166 
3 276 119 169 
3 618 644 619 
3 444 633 76 
3 633 593 305 
3 1 80 11 
3 199 229 510 
3 11 596 525 
3 245 612 532 
3 282 361 507 
3 679 513 89 
3 294 12 275 
3 116 339 671 
3 96 62 567 
3 659 426 643 
3 50 479 224 
3 403 662 655 
3 105 158 288 
3 391 517 504 
3 557 508 169 
3 4 290 553 
3 238 29 86 
3 140 580 372 
3 168 301 88 
3 527 302 297 
3 19 6 357 
3 421 193 667 
3 309 626 628 
3 287 410 226 
3 448 403 297 
3 62 463 472 
3 536 419 406 
3 571 506 512 
3 28 407 319 
3 211 678 125 
3 123 289 530 
3 444 563 420 
3 640 233 505 
3 684 306 221 
3 248 101 141 
3 465 93 84 
3 485 631 592 
3 207 53 547 
3 346 418 261 
3 270 421 314 
3 198 623 181 
3 206 23 346 
3 344 638 157 
3 533 651 370 
3 308 604 104 
3 196 573 328 
3 526 646 136 
3 479 608 49 
3 590 600 367 
3 672 243 143 
3 120 220 535 
3 305 593 577 
3 143 385 436 
3 111 323 138 
3 201 27 614 
3 473 141 115 
3 550 312 459 
3 550 239 473 
3 129 678 446 
3 129 39 678 
3 98 566 618 
3 126 26 531 
3 636 250 646 
3 283 344 171 
3 208 368 253 
3 435 639 486 
3 661 412 245 
3 4 285 569 
3 561 31 539 
3 145 186 564 
3 393 654 114 
3 309 363 307 
3 410 407 28 
3 77 7 524 
3 611 600 456 
3 91 210 227 
3 38 327 54 
3 450 529 603 
3 594 461 469 
3 244 154 86 
3 484 602 496 
3 342 160 459 
3 316 427 625 
3 649 222 335 
3 322 497 506 
3 240 603 408 
3 355 101 109 
3 244 682 81 
3 579 392 200 
3 174 376 5 
3 569 285 52 
3 374 649 326 
3 268 134 260 
3 532 128 673 
3 100 156 176 
3 159 394 369 
3 195 185 218 
3 610 240 581 
3 163 437 370 
3 16 566 527 
3 191 158 344 
3 261 192 242 
3 360 262 316 
3 259 570 475 
3 164 390 406 
3 552 352 166 
3 682 401 500 
3 125 370 651 
3 297 403 16 
3 623 561 269 
3 535 220 106 
3 422 362 6 
3 75 267 319 
3 228 97 636 
3 647 621 591 
3 410 99 407 
3 229 199 104 
3 118 19 357 
3 143 243 627 
3 500 296 44 
3 677 404 311 
3 420 563 74 
3 451 480 138 
3 47 548 119 
3 355 459 321 
3 241 588 414 
3 110 539 546 
3 243 57 587 
3 322 112 497 
3 156 580 176 
3 224 384 152 
3 131 196 371 
3 133 281 291 
3 320 669 292 
3 404 322 506 
3 63 482 555 
3 499 114 654 
3 241 268 260 
3 60 99 410 
3 451 323 183 
3 146 621 647 
3 624 235 130 
3 467 390 249 
3 612 379 643 
3 476 73 598 
3 672 663 57 
3 275 309 307 
3 427 320 300 
3 188 515 601 
3 202 149 291 
3 473 115 312 
3 173 43 498 
3 173 300 43 
3 424 285 4 
3 656 667 284 
3 276 169 331 
3 112 165 497 
3 336 537 441 
3 18 474 152 
3 433 507 361 
3 373 96 567 
3 353 498 519 
3 430 341 503 
3 130 30 624 
3 595 237 453 
3 658 208 253 
3 378 235 310 
3 67 648 281 
3 425 127 635 
3 368 41 182 
3 153 340 222 
3 570 259 399 
3 101 355 321 
3 387 45 398 
3 107 351 303 
3 570 399 431 
3 386 458 578 
3 587 57 213 
3 507 433 627 
3 34 68 615 
3 435 668 179 
3 610 581 439 
3 592 430 503 
3 506 497 402 
3 135 562 223 
3 259 66 399 
3 164 450 610 
3 250 162 136 
3 589 325 466 
3 519 168 583 
3 210 93 227 
3 16 403 200 
3 498 625 173 
3 504 614 391 
3 153 222 649 
3 496 124 464 
3 499 412 661 
3 629 588 580 
3 105 633 444 
3 562 656 223 
3 443 367 259 
3 637 12 294 
3 215 631 334 
3 537 247 46 
3 88 167 394 
3 205 253 575 
3 357 6 526 
3 276 531 155 
3 76 633 305 
3 113 617 493 
3 40 607 192 
3 515 423 601 
3 479 8 22 
3 328 496 371 
3 45 387 110 
3 444 305 495 
3 155 545 47 
3 65 551 129 
3 433 377 182 
3 549 201 504 
3 660 149 513 
3 620 218 644 
3 162 628 103 
3 65 428 333 
3 206 261 29 
3 660 87 344 
3 613 431 45 
3 549 369 394 
3 103 172 162 
3 21 83 497 
3 427 300 173 
3 330 602 32 
3 224 642 116 
3 52 352 516 
3 316 664 12 
3 677 442 112 
3 229 347 510 
3 420 113 444 
3 566 16 618 
3 643 426 279 
3 53 207 359 
3 199 510 688 
3 323 111 652 
3 628 534 309 
3 618 16 392 
3 175 220 358 
3 256 161 428 
3 11 447 596 
3 491 677 311 
3 252 643 373 
3 271 361 293 
3 453 227 475 
3 138 291 622 
3 59 480 67 
3 256 538 161 
3 47 84 543 
3 144 621 356 
3 103 272 629 
3 85 430 592 
3 489 573 574 
3 489 574 421 
3 310 235 0 
3 592 631 689 
3 654 421 270 
3 649 335 326 
3 354 541 166 
3 273 219 139 
3 55 84 23 
3 163 678 39 
3 594 189 461 
3 254 151 406 
3 666 528 49 
3 682 244 607 
3 277 279 426 
3 568 32 92 
3 469 461 42 
3 111 138 622 
3 582 508 557 
3 452 470 471 
3 345 171 231 
3 400 390 467 
3 382 385 286 
3 625 498 217 
3 583 369 504 
3 243 507 627 
3 514 246 546 
3 340 477 641 
3 598 73 197 
3 225 411 481 
3 196 329 371 
3 163 492 437 
3 137 58 82 
3 178 471 470 
3 469 132 472 
3 383 600 630 
3 171 344 157 
3 123 530 126 
3 57 509 92 
3 386 441 537 
3 202 413 149 
3 219 181 139 
3 172 140 17 
3 0 575 310 
3 467 447 127 
3 338 546 31 
3 227 73 476 
3 619 185 89 
3 341 605 586 
3 668 486 522 
3 98 89 513 
3 165 108 477 
3 66 259 398 
3 663 100 214 
3 335 280 326 
3 632 71 296 
3 593 335 180 
3 540 7 77 
3 393 524 489 
3 256 65 129 
3 171 56 231 
3 75 123 544 
3 159 168 88 
3 357 526 136 
3 0 235 624 
3 350 416 417 
3 572 203 318 
3 251 553 290 
3 5 674 9 
3 7 293 361 
3 193 14 667 
3 558 289 123 
3 502 422 19 
3 405 7 361 
3 372 51 140 
3 265 84 93 
3 178 470 79 
3 303 648 107 
3 255 688 380 
3 335 593 299 
3 14 442 284 
3 488 315 418 
3 154 308 364 
3 168 519 33 
3 10 310 170 
3 463 79 656 
3 51 17 140 
3 67 480 605 
3 433 381 627 
3 363 228 487 
3 619 89 98 
3 286 657 51 
3 657 263 51 
3 197 73 93 
3 406 390 536 
3 327 438 54 
3 605 480 586 
3 379 471 373 
3 129 446 256 
3 286 494 657 
3 451 586 480 
3 492 139 437 
3 138 133 291 
3 647 160 445 
3 99 61 542 
3 528 199 688 
3 410 28 226 
3 628 626 272 
3 72 525 439 
3 142 48 683 
3 499 270 412 
3 151 450 406 
3 158 111 638 
3 524 7 405 
3 153 165 477 
3 393 421 654 
3 85 689 107 
3 121 317 23 
3 584 290 4 
3 681 562 347 
3 397 330 505 
3 121 23 35 
3 482 209 426 
3 596 439 525 
3 626 675 522 
3 304 94 21 
3 125 678 163 
3 178 463 62 
3 46 37 458 
3 655 200 403 
3 609 350 417 
3 567 62 472 
3 224 116 384 
3 343 342 355 
3 49 104 666 
3 136 172 17 
3 37 247 8 
3 37 46 247 
3 308 608 364 
3 79 560 656 
3 415 296 3 
3 528 8 49 
3 580 260 176 
3 209 36 10 
3 1 633 80 
3 444 113 493 
3 635 90 425 
3 361 282 405 
3 117 563 258 
3 644 618 392 
3 174 650 351 
3 484 496 328 
3 93 210 216 
3 298 189 594 
3 273 505 219 
3 51 372 382 
3 566 302 527 
3 66 45 399 
3 171 345 576 
3 443 476 598 
3 362 422 584 
3 496 602 124 
3 341 430 605 
3 232 516 515 
3 69 63 378 
3 325 589 506 
3 602 484 523 
3 615 68 508 
3 122 665 623 
3 569 584 4 
3 684 221 639 
3 494 41 658 
3 652 551 65 
3 120 358 220 
3 293 7 540 
3 264 484 328 
3 515 569 232 
3 400 419 536 
3 401 682 607 
3 442 641 112 
3 297 16 527 
3 131 295 222 
3 17 634 136 
3 591 160 647 
3 459 591 550 
3 418 346 23 
3 624 30 167 
3 95 483 225 
3 358 419 175 
3 130 287 30 
3 637 427 316 
3 97 534 162 
3 370 125 163 
3 355 342 459 
3 339 642 537 
3 663 672 100 
3 288 633 105 
3 226 30 287 
3 581 72 439 
3 508 68 169 
3 155 278 545 
3 155 26 278 
3 333 428 341 
3 538 446 671 
3 353 68 217 
3 167 541 624 
3 624 541 354 
3 242 86 29 
3 320 637 669 
3 249 610 439 
3 267 75 544 
3 474 520 154 
3 512 334 571 
3 130 235 378 
3 15 157 638 
3 542 359 324 
3 553 575 0 
3 206 55 23 
3 15 318 483 
3 110 546 236 
3 476 259 475 
3 395 535 106 
3 218 619 644 
3 218 185 619 
3 581 679 72 
3 293 377 271 
3 449 552 33 
3 122 148 665 
3 497 83 402 
3 2 440 449 
3 449 554 2 
3 138 480 133 
3 461 189 53 
3 468 98 149 
3 533 539 651 
3 157 56 171 
3 508 237 615 
3 331 518 276 
3 485 592 503 
3 523 609 556 
3 116 671 384 
3 548 91 557 
3 122 198 179 
3 16 200 392 
3 477 340 153 
3 152 364 50 
3 294 275 307 
3 521 82 58 
3 328 329 196 
3 267 201 549 
3 474 18 443 
3 240 408 581 
3 497 165 304 
3 539 269 561 
3 95 231 56 
3 324 359 207 
3 158 191 288 
3 602 330 124 
3 147 617 39 
3 620 280 218 
3 431 453 475 
3 555 287 63 
3 350 405 416 
3 181 219 198 
3 2 554 228 
3 468 566 98 
3 373 567 457 
3 501 32 568 
3 353 429 517 
3 364 474 154 
3 662 403 9 
3 466 438 255 
3 578 503 386 
3 606 405 350 
3 190 501 568 
3 243 282 507 
3 308 154 604 
3 427 637 320 
3 340 131 222 
3 607 86 192 
3 612 245 452 
3 330 397 124 
3 505 273 397 
3 595 194 237 
3 117 397 563 
3 660 283 572 
3 324 558 99 
3 376 674 5 
3 600 383 367 
3 576 203 283 
3 653 37 8 
3 565 612 643 
3 397 273 74 
3 295 131 464 
3 575 502 313 
3 158 638 344 
3 481 343 225 
3 443 590 367 
3 660 291 149 
3 61 99 585 
3 108 641 477 
3 333 341 451 
3 451 341 586 
3 465 197 93 
3 243 587 282 
3 311 589 676 
3 649 374 409 
3 431 475 570 
3 62 96 471 
3 57 92 417 
3 57 243 672 
3 18 456 590 
3 18 590 443 
3 292 669 554 
3 401 298 332 
3 493 105 444 
3 650 5 448 
3 80 191 559 
3 466 255 676 
3 423 516 352 
3 423 515 516 
3 298 594 3 
3 211 611 446 
3 171 576 283 
3 39 113 163 
3 453 431 595 
3 25 24 316 
3 432 188 526 
3 332 298 3 
3 489 421 393 
3 180 295 577 
3 180 222 295 
3 128 532 565 
3 363 97 228 
3 351 274 174 
3 597 453 237 
3 554 487 228 
3 264 573 606 
3 337 338 257 
3 454 70 391 
3 632 401 332 
3 343 109 225 
3 277 462 279 
3 523 556 92 
3 221 486 639 
3 269 370 437 
3 10 426 209 
3 469 177 415 
3 36 209 482 
3 520 598 197 
3 572 283 203 
3 345 356 576 
3 537 336 161 
3 323 451 138 
3 333 183 65 
3 216 91 543 
3 279 565 643 
3 3 296 71 
3 151 90 635 
3 400 686 419 
3 266 652 105 
3 668 675 102 
3 246 236 546 
3 211 446 678 
3 355 109 343 
3 662 670 655 
3 336 441 341 
3 465 234 520 
3 257 338 561 
3 338 31 561 
3 312 115 321 
3 506 402 512 
3 33 519 449 
3 653 327 38 
3 636 440 645 
3 70 517 391 
3 686 425 396 
3 164 249 390 
3 428 336 341 
3 109 95 225 
3 406 450 164 
3 619 98 618 
3 414 588 272 
3 548 543 91 
3 409 153 649 
3 203 411 483 
3 645 440 2 
3 261 418 40 
3 40 418 315 
3 517 70 353 
3 514 546 338 
3 560 366 314 
3 3 71 332 
3 48 674 683 
3 48 9 674 
3 269 181 623 
3 231 356 345 
3 1 195 299 
3 501 640 505 
3 501 505 330 
3 574 196 511 
3 389 470 452 
3 552 440 423 
3 645 228 636 
3 658 41 208 
3 388 412 270 
3 241 414 626 
3 304 374 655 
3 628 272 103 
3 606 350 264 
3 600 611 630 
3 597 237 508 
3 326 280 490 
3 686 187 175 
3 669 307 487 
3 633 288 80 
3 71 632 478 
3 526 362 432 
3 191 344 87 
3 301 168 33 
3 492 420 74 
3 579 655 490 
3 655 374 490 
3 603 240 450 
3 514 24 246 
3 327 653 150 
3 460 525 72 
3 144 231 95 
3 653 38 37 
3 11 603 127 
3 314 656 560 
3 140 103 580 
3 445 411 647 
3 601 440 636 
3 634 17 375 
3 504 201 614 
3 170 368 277 
3 670 304 655 
3 237 194 360 
3 640 684 639 
3 559 581 80 
3 91 597 582 
3 505 233 219 
3 234 465 55 
3 633 1 299 
3 395 106 564 
3 55 206 234 
3 245 532 661 
3 382 286 51 
3 385 143 627 
3 460 185 195 
3 373 643 379 
3 491 284 677 
3 131 371 464 
3 213 417 416 
3 239 141 473 
3 239 248 141 
3 292 43 300 
3 150 528 438 
3 550 473 312 
3 568 92 190 
3 87 559 191 
3 276 47 119 
3 276 155 47 
3 440 601 423 
3 460 679 89 
3 321 115 141 
3 632 332 478 
3 521 184 555 
3 34 360 217 
3 280 620 490 
3 269 539 533 
3 689 631 215 
3 89 185 460 
3 218 280 335 
3 382 372 156 
3 203 576 146 
3 97 250 636 
3 304 409 374 
3 125 651 387 
3 183 323 652 
3 472 132 567 
3 83 21 683 
3 599 457 132 
3 251 502 575 
3 334 680 434 
3 230 205 313 
3 580 156 372 
3 511 196 340 
3 579 200 655 
3 673 661 532 
3 482 63 69 
3 194 595 431 
3 219 179 198 
3 672 143 436 
3 5 9 448 
3 396 564 106 
3 187 396 106 
3 412 389 245 
3 82 457 137 
3 237 360 615 
3 667 656 314 
3 435 219 233 
3 652 65 183 
3 105 111 158 
3 496 464 371 
3 646 188 601 
3 657 494 455 
3 665 616 257 
3 526 188 646 
3 405 282 416 
3 611 456 384 
3 122 668 148 
3 68 70 454 
3 293 685 377 
3 34 615 360 
3 611 384 671 
3 513 679 87 
3 584 569 349 
3 45 431 399 
3 214 100 176 
3 626 414 272 
3 9 48 662 
3 309 275 102 
3 422 6 19 
3 626 309 102 
3 459 160 591 
3 125 387 211 
3 579 490 392 
3 625 217 360 
3 51 263 17 
3 464 258 577 
3 245 389 452 
3 194 613 25 
3 444 495 563 
3 511 641 193 
3 511 340 641 
3 46 386 537 
3 83 683 402 
3 305 444 76 
3 291 572 622 
3 413 212 149 
3 551 147 129 
3 377 433 271 
3 204 673 128 
3 204 685 673 
3 268 214 134 
3 663 509 57 
3 539 110 651 
3 366 560 79 
3 589 311 404 
3 630 611 211 
3 434 683 674 
3 110 387 651 
3 387 398 367 
3 433 361 271 
3 669 637 294 
3 466 676 589 
3 194 431 613 
3 521 659 252 
3 82 521 252 
3 25 316 262 
3 81 500 44 
3 689 215 274 
3 275 616 148 
3 452 471 379 
3 528 666 199 
3 471 178 62 
3 687 486 221 
3 540 685 293 
3 347 44 681 
3 275 664 616 
3 139 492 273 
3 360 194 262 
3 325 571 578 
3 142 670 662 
3 107 689 274 
3 613 246 25 
3 95 56 157 
3 85 605 430 
3 386 503 441 
3 136 646 250 
3 172 136 162 
3 540 661 685 
3 351 650 302 
3 627 381 286 
3 381 494 286 
3 44 347 81 
3 230 455 205 
3 87 679 559 
3 100 436 382 
3 565 462 128 
3 565 279 462 
3 634 357 136 
3 680 512 683 
3 44 177 681 
3 432 362 349 
3 681 463 562 
3 229 104 604 
3 348 676 255 
3 181 437 139 
3 38 458 37 
3 434 680 683 
3 462 277 204 
3 54 325 64 
3 438 688 255 
3 688 438 528 
3 578 485 503 
3 208 41 368 
3 268 306 214 
3 351 302 303 
3 578 458 38 
3 668 435 486 
3 263 657 455 
3 434 376 215 
3 368 170 253 
3 231 144 356 
3 589 404 506 
3 388 366 470 
3 388 270 366 
3 127 686 400 
3 255 135 223 
3 190 214 306 
3 193 442 14 
3 101 621 144 
3 642 247 537 
3 365 182 41 
3 658 253 205 
3 54 466 325 
3 652 266 551 
3 268 241 687 
3 380 510 135 
3 688 510 380 
3 667 314 421 
3 342 343 160 
3 195 11 525 
3 195 1 11 
3 177 463 681 
3 322 404 112 
3 111 105 652 
3 269 533 370 
3 142 662 48 
3 142 21 94 
3 630 387 383 
3 45 236 246 
3 3 594 415 
3 420 163 113 
3 405 606 524 
3 103 140 172 
3 5 650 174 
3 337 616 664 
3 612 565 532 
3 365 494 381 
3 362 526 6 
3 204 377 685 
3 69 378 36 
3 413 303 212 
3 275 148 102 
3 365 41 494 
3 433 365 381 
3 205 455 658 
3 494 658 455 
3 452 379 612 
3 54 438 466 
3 192 261 40 
3 623 257 561 
3 254 186 90 
